<svg width="194" height="194" viewBox="0 0 194 194" fill="none" xmlns="http://www.w3.org/2000/svg">
<g clip-path="url(#clip0_467_2)">
<mask id="mask0_467_2" style="mask-type:luminance" maskUnits="userSpaceOnUse" x="0" y="0" width="195" height="195">
<path d="M0.015625 0.00109863H194.016V194.001H0.015625V0.00109863Z" fill="white"/>
</mask>
<g mask="url(#mask0_467_2)">
<path fill-rule="evenodd" clip-rule="evenodd" d="M194.016 0.00109863H0.015625V194.001H194.016V0.00109863ZM117.224 48.5011C117.224 46.9026 116.749 45.3401 115.861 44.0111C114.973 42.6822 113.711 41.6464 112.234 41.0347C110.757 40.423 109.132 40.263 107.564 40.5747C105.996 40.8865 104.556 41.6561 103.426 42.7862L83.2174 62.9945C82.4453 63.7402 81.8295 64.6321 81.4059 65.6183C80.9822 66.6045 80.7593 67.6652 80.7499 68.7385C80.7406 69.8118 80.9451 70.8762 81.3516 71.8696C81.758 72.8631 82.3582 73.7656 83.1172 74.5245C83.8761 75.2835 84.7787 75.8837 85.7721 76.2902C86.7655 76.6966 87.8299 76.9011 88.9032 76.8918C89.9765 76.8825 91.0372 76.6595 92.0234 76.2358C93.0096 75.8122 93.9015 75.1964 94.6472 74.4243L101.057 68.0143V145.501C101.057 147.645 101.909 149.701 103.425 151.217C104.941 152.733 106.997 153.584 109.141 153.584C111.284 153.584 113.34 152.733 114.856 151.217C116.372 149.701 117.224 147.645 117.224 145.501V48.5011Z" fill="white"/>
</g>
</g>
<defs>
<clipPath id="clip0_467_2">
<rect width="194" height="194" fill="white"/>
</clipPath>
</defs>
</svg>
