<svg width="48" height="48" viewBox="0 0 48 48" fill="none" xmlns="http://www.w3.org/2000/svg">
<g clip-path="url(#clip0_500_2)">
<mask id="mask0_500_2" style="mask-type:luminance" maskUnits="userSpaceOnUse" x="0" y="0" width="48" height="48">
<path d="M0 0H48V48H0V0Z" fill="white"/>
</mask>
<g mask="url(#mask0_500_2)">
<path fill-rule="evenodd" clip-rule="evenodd" d="M48 0H0V48H48V0ZM30 18C30 16.9391 29.5786 15.9217 28.8284 15.1716C28.0783 14.4214 27.0609 14 26 14H22C21.1727 13.9999 20.3656 14.2562 19.69 14.7336C19.0143 15.211 18.5032 15.8861 18.227 16.666C18.0434 17.1569 17.6745 17.5562 17.1996 17.7778C16.7247 17.9995 16.1817 18.0259 15.6876 17.8514C15.1934 17.6768 14.7874 17.3153 14.5571 16.8445C14.3268 16.3737 14.2905 15.8313 14.456 15.334C15.0078 13.7741 16.0295 12.4236 17.3805 11.4684C18.7315 10.5132 20.3454 10.0002 22 10H26C27.6166 10.0001 29.1953 10.4899 30.528 11.405C31.8607 12.32 32.8849 13.6174 33.4657 15.1261C34.0464 16.6348 34.1565 18.2841 33.7813 19.8566C33.4061 21.4291 32.5633 22.851 31.364 23.935L20.948 34H32C32.5304 34 33.0391 34.2107 33.4142 34.5858C33.7893 34.9609 34 35.4696 34 36C34 36.5304 33.7893 37.0391 33.4142 37.4142C33.0391 37.7893 32.5304 38 32 38H16C15.6015 38 15.2122 37.881 14.8818 37.6582C14.5515 37.4354 14.2952 37.1191 14.1458 36.7497C13.9965 36.3803 13.9609 35.9747 14.0436 35.5849C14.1263 35.1951 14.3235 34.8389 14.61 34.562L28.61 21.034L28.666 20.982C29.0864 20.6074 29.4227 20.148 29.6526 19.634C29.8825 19.12 30.0009 18.5631 30 18Z" fill="white"/>
</g>
</g>
<defs>
<clipPath id="clip0_500_2">
<rect width="48" height="48" fill="white"/>
</clipPath>
</defs>
</svg>
