<svg width="48" height="48" viewBox="0 0 48 48" fill="none" xmlns="http://www.w3.org/2000/svg">
<g clip-path="url(#clip0_500_15)">
<mask id="mask0_500_15" style="mask-type:luminance" maskUnits="userSpaceOnUse" x="0" y="0" width="48" height="48">
<path d="M0 0H48V48H0V0Z" fill="white"/>
</mask>
<g mask="url(#mask0_500_15)">
<path fill-rule="evenodd" clip-rule="evenodd" d="M48 0H0V48H48V0ZM30 18C30 15.831 28.192 14 25.87 14H21.782C19.959 14 18.438 15.137 17.882 16.68C17.7017 17.179 17.3305 17.5859 16.8501 17.8113C16.3697 18.0366 15.8195 18.0618 15.3205 17.8815C14.8215 17.7012 14.4146 17.33 14.1892 16.8496C13.9639 16.3692 13.9387 15.819 14.119 15.32C15.245 12.202 18.266 10 21.782 10H25.869C30.32 10 34 13.541 34 18C34.0003 19.1394 33.7545 20.2654 33.2793 21.3009C32.8042 22.3365 32.1109 23.2572 31.247 24C32.1109 24.7428 32.8042 25.6635 33.2793 26.6991C33.7545 27.7346 34.0003 28.8606 34 30C34 34.459 30.319 38 25.87 38H21.782C18.266 38 15.245 35.798 14.119 32.68C14.0297 32.433 13.9899 32.1708 14.002 31.9084C14.014 31.646 14.0776 31.3886 14.1891 31.1508C14.3006 30.913 14.4579 30.6994 14.6519 30.5224C14.846 30.3454 15.073 30.2083 15.32 30.119C15.8189 29.9387 16.369 29.9639 16.8492 30.1891C17.087 30.3006 17.3006 30.4579 17.4776 30.6519C17.6546 30.846 17.7917 31.073 17.881 31.32C18.438 32.863 19.959 34 21.782 34H25.869C28.192 34 30 32.169 30 30C30 27.831 28.192 26 25.87 26H21.782C21.2516 26 20.7429 25.7893 20.3678 25.4142C19.9927 25.0391 19.782 24.5304 19.782 24C19.782 23.4696 19.9927 22.9609 20.3678 22.5858C20.7429 22.2107 21.2516 22 21.782 22H25.869C28.192 22 30 20.169 30 18Z" fill="white"/>
</g>
</g>
<defs>
<clipPath id="clip0_500_15">
<rect width="48" height="48" fill="white"/>
</clipPath>
</defs>
</svg>
