<svg width="32" height="32" viewBox="0 0 32 32" fill="none" xmlns="http://www.w3.org/2000/svg">
<g clip-path="url(#clip0_267_286)">
<path d="M0.53418 16.0816C0.53446 13.0147 1.43113 10.0147 3.11391 7.45064C4.79669 4.88659 7.1922 2.87028 10.0058 1.64971C12.8194 0.429146 15.9284 0.0575427 18.9504 0.58061C21.9724 1.10368 24.7756 2.49861 27.0153 4.59383C29.255 6.68905 30.8335 9.39319 31.5565 12.3737C32.2796 15.3541 32.1159 18.481 31.0853 21.3696C30.0548 24.2582 28.2024 26.7826 25.7561 28.6324C23.3097 30.4821 20.3761 31.5766 17.316 31.781V19.2282H21.5114V17.1305H17.316V13.9839C17.316 13.1494 17.6475 12.349 18.2376 11.7589C18.8277 11.1688 19.6281 10.8373 20.4626 10.8373H21.5114V8.73958H20.4626C19.0717 8.73958 17.7378 9.2921 16.7543 10.2756C15.7708 11.2591 15.2183 12.593 15.2183 13.9839V17.1305H11.0228V19.2282H15.2183V31.781C11.2358 31.5149 7.50338 29.7452 4.77692 26.8302C2.05046 23.9152 0.533815 20.0729 0.53418 16.0816Z" fill="#A3A3A3"/>
</g>
<defs>
<clipPath id="clip0_267_286">
<rect width="31.4659" height="31.4659" fill="white" transform="translate(0.53418 0.348633)"/>
</clipPath>
</defs>
</svg>
