<svg width="32" height="32" viewBox="0 0 32 32" fill="none" xmlns="http://www.w3.org/2000/svg">
<g clip-path="url(#clip0_267_279)">
<path d="M0 2.60238C0 1.35751 1.03444 0.348633 2.31078 0.348633H29.1551C30.4315 0.348633 31.4659 1.35751 31.4659 2.60238V29.5608C31.4659 30.8057 30.4315 31.8145 29.1551 31.8145H2.31078C1.03444 31.8145 0 30.8057 0 29.5608V2.60238ZM9.721 26.6895V12.4807H4.99915V26.6895H9.721ZM7.36106 10.5397C9.00712 10.5397 10.0317 9.45015 10.0317 8.08531C10.0022 6.69098 9.00908 5.63097 7.39252 5.63097C5.77596 5.63097 4.71989 6.69295 4.71989 8.08531C4.71989 9.45015 5.74449 10.5397 7.32959 10.5397H7.36106ZM17.0132 26.6895V18.7542C17.0132 18.3294 17.0447 17.9046 17.1706 17.6018C17.5108 16.7542 18.2876 15.8751 19.5934 15.8751C21.3024 15.8751 21.9848 17.177 21.9848 19.0885V26.6895H26.7067V18.5399C26.7067 14.174 24.3782 12.1444 21.271 12.1444C18.7655 12.1444 17.6425 13.521 17.0132 14.4906V14.5398H16.9818C16.9922 14.5233 17.0027 14.507 17.0132 14.4906V12.4807H12.2933C12.3523 13.8141 12.2933 26.6895 12.2933 26.6895H17.0132Z" fill="#A3A3A3"/>
</g>
<defs>
<clipPath id="clip0_267_279">
<rect width="31.4659" height="31.4659" fill="white" transform="translate(0 0.348633)"/>
</clipPath>
</defs>
</svg>
