<svg width="32" height="32" viewBox="0 0 32 32" fill="none" xmlns="http://www.w3.org/2000/svg">
<g clip-path="url(#clip0_267_283)">
<path d="M15.757 10.8374C14.3661 10.8374 13.0322 11.3899 12.0487 12.3734C11.0652 13.3569 10.5127 14.6908 10.5127 16.0817C10.5127 17.4726 11.0652 18.8065 12.0487 19.79C13.0322 20.7735 14.3661 21.326 15.757 21.326C17.1479 21.326 18.4818 20.7735 19.4653 19.79C20.4488 18.8065 21.0013 17.4726 21.0013 16.0817C21.0013 14.6908 20.4488 13.3569 19.4653 12.3734C18.4818 11.3899 17.1479 10.8374 15.757 10.8374Z" fill="#A3A3A3"/>
<path fill-rule="evenodd" clip-rule="evenodd" d="M9.46223 0.348633C6.95865 0.348633 4.55761 1.34318 2.78731 3.11348C1.01701 4.88378 0.0224609 7.28482 0.0224609 9.78841L0.0224609 22.3748C0.0224609 24.8784 1.01701 27.2794 2.78731 29.0497C4.55761 30.82 6.95865 31.8145 9.46223 31.8145H22.0486C24.5522 31.8145 26.9532 30.82 28.7235 29.0497C30.4938 27.2794 31.4884 24.8784 31.4884 22.3748V9.78841C31.4884 7.28482 30.4938 4.88378 28.7235 3.11348C26.9532 1.34318 24.5522 0.348633 22.0486 0.348633L9.46223 0.348633ZM8.41337 16.0816C8.41337 14.1344 9.1869 12.2669 10.5638 10.89C11.9407 9.51308 13.8082 8.73954 15.7554 8.73954C17.7026 8.73954 19.5701 9.51308 20.947 10.89C22.3239 12.2669 23.0975 14.1344 23.0975 16.0816C23.0975 18.0288 22.3239 19.8963 20.947 21.2732C19.5701 22.6501 17.7026 23.4236 15.7554 23.4236C13.8082 23.4236 11.9407 22.6501 10.5638 21.2732C9.1869 19.8963 8.41337 18.0288 8.41337 16.0816ZM23.0975 8.73954H25.1952V6.64181H23.0975V8.73954Z" fill="#A3A3A3"/>
</g>
<defs>
<clipPath id="clip0_267_283">
<rect width="31.4659" height="31.4659" fill="white" transform="translate(0.0224609 0.348633)"/>
</clipPath>
</defs>
</svg>
