<svg width="32" height="32" viewBox="0 0 32 32" fill="none" xmlns="http://www.w3.org/2000/svg">
<path d="M29.959 8.21542C28.9495 8.6743 27.8613 8.97585 26.7338 9.12007C27.8875 8.42519 28.7791 7.32389 29.1986 5.9997C28.1104 6.65524 26.9042 7.11411 25.6325 7.37633C24.5967 6.2488 23.1414 5.59326 21.4895 5.59326C18.4084 5.59326 15.8912 8.11053 15.8912 11.2178C15.8912 11.6636 15.9436 12.0962 16.0354 12.5027C11.3679 12.2667 7.2118 10.0247 4.44543 6.62901C3.96033 7.45499 3.685 8.42519 3.685 9.44784C3.685 11.4013 4.66831 13.132 6.18916 14.1153C5.2583 14.1153 4.39298 13.8531 3.63256 13.4597V13.4991C3.63256 16.2261 5.57295 18.5074 8.14267 19.0187C7.31764 19.2445 6.4515 19.2759 5.61229 19.1105C5.96838 20.2282 6.66579 21.2061 7.60646 21.9069C8.54713 22.6077 9.68378 22.9961 10.8566 23.0175C8.86852 24.5914 6.40417 25.4421 3.86855 25.4299C3.42278 25.4299 2.97702 25.4037 2.53125 25.3512C5.0223 26.9507 7.98534 27.8816 11.1582 27.8816C21.4895 27.8816 27.1664 19.3072 27.1664 11.8733C27.1664 11.6242 27.1664 11.3882 27.1533 11.1391C28.2546 10.3525 29.1986 9.35606 29.959 8.21542Z" fill="#A3A3A3"/>
</svg>
