<svg width="88" height="87" viewBox="0 0 88 87" fill="none" xmlns="http://www.w3.org/2000/svg">
<path d="M22.0745 52.4175C22.0745 53.3763 21.6937 54.2957 21.0157 54.9736C20.3378 55.6516 19.4183 56.0324 18.4596 56.0324C17.5009 56.0324 16.5814 55.6516 15.9035 54.9736C15.2256 54.2957 14.8447 53.3763 14.8447 52.4175V36.1505C14.8447 35.1918 15.2256 34.2723 15.9035 33.5944C16.5814 32.9165 17.5009 32.5356 18.4596 32.5356C19.4183 32.5356 20.3378 32.9165 21.0157 33.5944C21.6937 34.2723 22.0745 35.1918 22.0745 36.1505V52.4175ZM72.683 52.4175C72.683 53.3763 72.3021 54.2957 71.6242 54.9736C70.9463 55.6516 70.0268 56.0324 69.0681 56.0324C68.1093 56.0324 67.1899 55.6516 66.512 54.9736C65.834 54.2957 65.4532 53.3763 65.4532 52.4175V36.1505C65.4532 35.1918 65.834 34.2723 66.512 33.5944C67.1899 32.9165 68.1093 32.5356 69.0681 32.5356C70.0268 32.5356 70.9463 32.9165 71.6242 33.5944C72.3021 34.2723 72.683 35.1918 72.683 36.1505V52.4175ZM40.149 72.2976C40.149 73.2564 39.7681 74.1758 39.0902 74.8537C38.4123 75.5317 37.4928 75.9125 36.5341 75.9125C35.5753 75.9125 34.6559 75.5317 33.978 74.8537C33.3 74.1758 32.9192 73.2564 32.9192 72.2976V56.0306C32.9192 55.0719 33.3 54.1524 33.978 53.4745C34.6559 52.7966 35.5753 52.4157 36.5341 52.4157C37.4928 52.4157 38.4123 52.7966 39.0902 53.4745C39.7681 54.1524 40.149 55.0719 40.149 56.0306V72.2976ZM54.6085 72.2976C54.6085 73.2564 54.2277 74.1758 53.5497 74.8537C52.8718 75.5317 51.9524 75.9125 50.9936 75.9125C50.0349 75.9125 49.1154 75.5317 48.4375 74.8537C47.7596 74.1758 47.3787 73.2564 47.3787 72.2976V56.0306C47.3787 55.0719 47.7596 54.1524 48.4375 53.4745C49.1154 52.7966 50.0349 52.4157 50.9936 52.4157C51.9524 52.4157 52.8718 52.7966 53.5497 53.4745C54.2277 54.1524 54.6085 55.0719 54.6085 56.0306V72.2976Z" fill="#7CB342"/>
<path d="M25.6885 32.5357V59.6456C25.6885 60.6043 26.0693 61.5238 26.7473 62.2017C27.4252 62.8796 28.3446 63.2605 29.3034 63.2605H58.2225C59.1812 63.2605 60.1007 62.8796 60.7786 62.2017C61.4565 61.5238 61.8374 60.6043 61.8374 59.6456V32.5357H25.6885ZM43.7629 14.4595C32.9183 14.4595 26.312 21.0476 25.6885 28.919H61.8374C61.212 21.0476 54.6076 14.4595 43.7629 14.4595ZM36.5331 24.5775C36.0538 24.5775 35.5941 24.3871 35.2551 24.0482C34.9161 23.7092 34.7257 23.2495 34.7257 22.7701C34.7257 22.2907 34.9161 21.831 35.2551 21.492C35.5941 21.1531 36.0538 20.9627 36.5331 20.9627C37.0125 20.9627 37.4722 21.1531 37.8112 21.492C38.1502 21.831 38.3406 22.2907 38.3406 22.7701C38.3406 23.2495 38.1502 23.7092 37.8112 24.0482C37.4722 24.3871 37.0125 24.5775 36.5331 24.5775ZM50.9927 24.5775C50.5133 24.5775 50.0536 24.3871 49.7147 24.0482C49.3757 23.7092 49.1853 23.2495 49.1853 22.7701C49.1853 22.2907 49.3757 21.831 49.7147 21.492C50.0536 21.1531 50.5133 20.9627 50.9927 20.9627C51.4721 20.9627 51.9318 21.1531 52.2708 21.492C52.6097 21.831 52.8002 22.2907 52.8002 22.7701C52.8002 23.2495 52.6097 23.7092 52.2708 24.0482C51.9318 24.3871 51.4721 24.5775 50.9927 24.5775Z" fill="#7CB342"/>
<path d="M54.6083 12.6519L51.5971 17.1687M32.9189 12.6519L35.3283 16.415" stroke="#7CB342" stroke-width="1.07108" stroke-linecap="round"/>
</svg>
