<svg width="63" height="63" viewBox="0 0 63 63" fill="none" xmlns="http://www.w3.org/2000/svg">
<g clip-path="url(#clip0_267_166)">
<path d="M31.3738 62.2832C48.3435 62.2832 62.1001 48.5266 62.1001 31.5569C62.1001 14.5872 48.3435 0.830566 31.3738 0.830566C14.4041 0.830566 0.647461 14.5872 0.647461 31.5569C0.647461 48.5266 14.4041 62.2832 31.3738 62.2832Z" fill="#F70000"/>
<path d="M31.2726 26.4622L10.25 48.6293L31.3667 14.2734L52.4987 48.8406L31.2726 26.4622ZM34.3222 35.2672H27.7506L31.1305 31.5493L34.3222 35.2999V35.2672ZM21.6476 41.3683V41.3222L25.375 37.5064V37.4891L36.7438 37.4411L40.5807 41.3683H21.6476Z" fill="white"/>
</g>
<defs>
<clipPath id="clip0_267_166">
<rect width="61.4527" height="61.4527" fill="white" transform="translate(0.647461 0.830566)"/>
</clipPath>
</defs>
</svg>
