<svg width="119" height="119" viewBox="0 0 119 119" fill="none" xmlns="http://www.w3.org/2000/svg">
<g clip-path="url(#clip0_486_4)">
<path d="M72.9569 73.7453C74.4246 73.7453 75.8328 74.256 76.9583 75.1782L77.0277 75.2328L76.2889 76.4178C75.4769 75.6752 74.44 75.225 73.343 75.1388C72.2459 75.0526 71.1515 75.3352 70.2334 75.9419C69.3153 76.5486 68.6261 77.4446 68.2753 78.4876C67.9244 79.5306 67.932 80.6609 68.2968 81.6991C68.6616 82.7374 69.3626 83.624 70.2888 84.2184C71.2149 84.8127 72.313 85.0807 73.4088 84.9798C74.5047 84.8789 75.5354 84.4149 76.3374 83.6614C77.1395 82.908 77.6669 81.9082 77.8359 80.8208L77.8458 80.7514H73.6213L74.4791 79.3779H79.2689V80.0671C79.2689 83.5479 76.4377 86.3791 72.9619 86.3791C71.3178 86.3337 69.7563 85.6488 68.6092 84.4701C67.4622 83.2914 66.8201 81.7118 66.8194 80.0671C66.8188 78.4224 67.4596 76.8423 68.6058 75.6626C69.7519 74.483 71.3129 73.792 72.9569 73.7453ZM6.307 73.7453C8.02754 73.7453 9.67867 74.4642 10.8588 75.6939L10.9182 75.7534L10.1398 76.9533C9.50394 76.1644 8.64082 75.5902 7.66751 75.3085C6.69419 75.0269 5.6578 75.0514 4.69891 75.3788C3.74002 75.7063 2.90505 76.3207 2.30727 77.1388C1.70948 77.9569 1.37781 78.9391 1.35725 79.9522C1.33669 80.9652 1.62823 81.9601 2.19233 82.8018C2.75642 83.6435 3.56577 84.2913 4.51059 84.6573C5.4554 85.0234 6.48995 85.09 7.47389 84.8481C8.45783 84.6061 9.34354 84.0674 10.0109 83.3049L10.0605 83.2454L11.1067 84.1379C10.2688 85.1166 9.15149 85.8154 7.90484 86.1406C6.6582 86.4657 5.34192 86.4016 4.13279 85.9568C2.92366 85.512 1.8796 84.7078 1.14082 83.6524C0.402051 82.5969 0.00395312 81.3406 0 80.0523C0 76.5814 2.83121 73.7453 6.307 73.7453ZM18.4053 73.8246C21.5737 73.8246 22.8381 75.3121 22.8381 77.4591C22.8381 79.2589 21.9258 80.5283 19.759 80.9596L19.6895 80.9745L23.1703 86.3047H21.5043L18.2169 81.0588H15.8468V86.3047H14.4932V73.8246H18.4053ZM47.5603 85.0949V86.3047H39.0221V85.0949H47.5603ZM27.6378 73.8246L31.064 79.5217C31.1631 79.7012 31.2381 79.8929 31.2871 80.0919C31.3367 79.9432 31.3813 79.7597 31.5003 79.5465L31.53 79.4969L34.9414 73.8196H36.414L28.6592 86.3047H27.3155L30.5235 81.0985L26.1503 73.8196L27.6378 73.8246ZM114.518 85.0949V86.3047H105.979V85.0949H114.518ZM91.9027 73.8246L99.3997 84.1627C99.3353 83.8652 99.3005 83.7611 99.2956 83.533V73.8246H100.644V86.3097H99.365L91.8531 75.9369C91.9027 76.1005 91.9672 76.3236 91.9721 76.6409V86.3097H90.6235V73.8246H91.9027ZM85.1544 73.8246V86.3097H83.8058V73.8246H85.1544ZM53.4459 73.8246L60.9429 84.1627C60.8784 83.8652 60.8437 83.7611 60.8388 83.533V73.8246H62.1874V86.3097H60.9082L53.3963 75.9369C53.4459 76.1005 53.5103 76.3236 53.5153 76.6409V86.3097H52.1666V73.8246H53.4459ZM114.518 79.1052V80.3299H105.979V79.1003L114.518 79.1052ZM47.5603 79.1052V80.3299H39.0221V79.1003L47.5603 79.1052ZM18.4252 75.0295H15.8468V79.8291H18.4103C20.3143 79.8291 21.4597 79.2689 21.4597 77.4541C21.4547 75.6344 20.3093 75.0295 18.4252 75.0295ZM117.547 72.2231C117.744 72.2115 117.941 72.2403 118.127 72.3078C118.312 72.3752 118.482 72.4798 118.625 72.6151C118.769 72.7505 118.883 72.9137 118.961 73.0948C119.039 73.276 119.08 73.4712 119.08 73.6684C119.08 73.8657 119.039 74.0609 118.961 74.242C118.883 74.4231 118.769 74.5864 118.625 74.7217C118.482 74.8571 118.312 74.9617 118.127 75.0291C117.941 75.0965 117.744 75.1253 117.547 75.1138C117.35 75.1253 117.153 75.0965 116.968 75.0291C116.782 74.9617 116.613 74.8571 116.469 74.7217C116.326 74.5864 116.211 74.4231 116.133 74.242C116.055 74.0609 116.015 73.8657 116.015 73.6684C116.015 73.4712 116.055 73.276 116.133 73.0948C116.211 72.9137 116.326 72.7505 116.469 72.6151C116.613 72.4798 116.782 72.3752 116.968 72.3078C117.153 72.2403 117.35 72.2115 117.547 72.2231ZM114.518 73.8196V75.0344H105.979V73.8246L114.518 73.8196ZM47.5603 73.8196V75.0344H40.2716L41.0203 73.8246L47.5603 73.8196ZM117.547 72.466C117.229 72.466 116.924 72.5924 116.699 72.8175C116.474 73.0425 116.347 73.3477 116.347 73.6659C116.347 73.9842 116.474 74.2894 116.699 74.5144C116.924 74.7394 117.229 74.8659 117.547 74.8659C117.866 74.8659 118.172 74.7392 118.397 74.5137C118.623 74.2882 118.75 73.9824 118.75 73.6635C118.75 73.3446 118.623 73.0387 118.397 72.8132C118.172 72.5877 117.866 72.466 117.547 72.466ZM117.557 72.9123C117.929 72.9123 118.093 73.1007 118.093 73.3635C118.093 73.5618 118.003 73.7106 117.8 73.78L117.77 73.7899L118.167 74.3998H117.879L117.547 73.8841C117.537 73.8742 117.532 73.8494 117.527 73.8345V73.8147H117.24V74.3998H117.002V72.9123H117.557ZM117.562 73.1404H117.24V73.5916H117.557C117.76 73.5916 117.855 73.542 117.855 73.3684C117.855 73.2048 117.76 73.1404 117.562 73.1404ZM54.0905 32.7151L54.5268 32.6804C42.8251 35.4074 35.8785 44.2432 35.8785 45.3935V45.3985C35.8785 45.4034 35.8835 45.3539 35.8884 45.577V45.6067C36.1264 46.8612 39.5873 52.9203 52.955 56.52C37.6338 55.3052 30.6723 47.8529 30.3301 45.6712L30.3252 45.6018H30.3202C30.3202 45.3737 30.3153 45.4183 30.3153 45.4332L30.3202 45.3687C30.5037 43.1276 39.8799 33.9051 54.0905 32.7151ZM58.9546 32.6208C74.8659 33.4489 84.1231 42.9094 84.2074 45.5621V45.5522L84.2024 45.7158V45.7456H84.1925C84.0685 47.0744 79.011 52.479 71.4446 54.9681C62.1973 58.0075 47.3174 56.9018 47.3174 45.3092C47.3207 42.6864 48.3657 40.1723 50.2227 38.32C52.0796 36.4677 54.5963 35.4289 57.2192 35.4322C59.842 35.4355 62.3561 36.4806 64.2084 38.3375C66.0607 40.1945 67.0995 42.7112 67.0962 45.334C67.0962 47.9867 65.9508 50.5551 64.2154 52.3749C69.01 52.1678 73.6046 50.3947 77.2955 47.3273C77.9103 46.7323 78.302 46.2265 78.4656 45.9191C78.5304 45.8113 78.5647 45.6879 78.5648 45.5621C78.5698 44.3721 72.1785 35.2289 58.9546 32.6208ZM57.1845 39.6964C56.448 39.6964 55.7188 39.8414 55.0384 40.1233C54.358 40.4051 53.7398 40.8182 53.2191 41.3389C52.6984 41.8596 52.2853 42.4779 52.0035 43.1582C51.7216 43.8386 51.5766 44.5678 51.5766 45.3043C51.5766 46.0407 51.7216 46.7699 52.0035 47.4503C52.2853 48.1307 52.6984 48.7489 53.2191 49.2696C53.7398 49.7904 54.358 50.2034 55.0384 50.4853C55.7188 50.7671 56.448 50.9121 57.1845 50.9121C58.6718 50.9121 60.0981 50.3213 61.1498 49.2696C62.2015 48.218 62.7923 46.7916 62.7923 45.3043C62.7923 43.817 62.2015 42.3906 61.1498 41.3389C60.0981 40.2872 58.6718 39.6964 57.1845 39.6964Z" fill="#EDEDED"/>
</g>
<defs>
<clipPath id="clip0_486_4">
<rect width="119" height="119" fill="white"/>
</clipPath>
</defs>
</svg>
