<svg width="87" height="87" viewBox="0 0 87 87" fill="none" xmlns="http://www.w3.org/2000/svg">
<path fill-rule="evenodd" clip-rule="evenodd" d="M50.9516 13.1104H55.3836V13.2014C55.3836 16.267 54.2675 19.1291 52.0413 21.7792C49.3541 24.9287 46.104 26.749 42.5809 26.4616C42.5334 26.0762 42.5094 25.6883 42.509 25.3C42.509 22.3576 43.7868 19.207 46.0561 16.6323C47.1889 15.327 48.6296 14.2444 50.3768 13.3786C50.5684 13.2852 50.76 13.1954 50.9516 13.1104ZM18.6807 36.9495C18.9082 36.4741 19.1561 36.0118 19.4231 35.5628C20.8182 33.1773 22.672 31.296 24.9916 29.9152C27.2672 28.5494 29.8654 27.8141 32.5193 27.7848C33.997 27.7848 35.9346 28.2435 38.3416 29.144C40.7427 30.047 42.2839 30.5056 42.9593 30.5056C43.4646 30.5056 45.1771 29.9691 48.0799 28.9009C50.8258 27.9106 53.143 27.4998 55.0411 27.6627C60.1845 28.0782 64.0477 30.1116 66.6176 33.7749C65.0812 34.7089 63.8034 35.7663 62.7855 36.9495H18.6807Z" fill="#5C9E31"/>
<path d="M50.9514 13.1104V11.9128C50.7834 11.913 50.6174 11.9485 50.464 12.017L50.9514 13.1104ZM55.3835 13.1104L56.581 13.102C56.5788 12.7858 56.4516 12.4834 56.2273 12.2606C56.0029 12.0378 55.6996 11.9128 55.3835 11.9128V13.1104ZM52.0412 21.7804L52.9513 22.5564L52.9573 22.5493L52.04 21.7793L52.0412 21.7804ZM42.5807 26.4628L41.3916 26.6065C41.4248 26.8802 41.5516 27.1341 41.7503 27.3252C41.9491 27.5163 42.2077 27.633 42.4825 27.6555L42.5795 26.4616L42.5807 26.4628ZM46.0559 16.6311L46.9541 17.4239L46.9601 17.4179L46.0559 16.6323V16.6311ZM50.3766 13.3786L49.8497 12.3032L49.8449 12.3056L50.3766 13.3786ZM18.6805 36.9495L17.6003 36.4334C17.5132 36.6159 17.4736 36.8175 17.4854 37.0194C17.4972 37.2213 17.56 37.417 17.6679 37.5881C17.7757 37.7592 17.9251 37.9002 18.1022 37.9979C18.2793 38.0957 18.4782 38.147 18.6805 38.147V36.9495ZM19.423 35.5628L20.4528 36.1759L20.4576 36.1663L19.423 35.5628ZM32.5191 27.7848V26.5873H32.4999L32.5191 27.7848ZM38.3415 29.144L38.763 28.0231H38.7606L38.3415 29.144ZM48.0797 28.9009L47.6738 27.7753L47.6666 27.7777L48.0797 28.9009ZM55.041 27.6627L54.9392 28.8554H54.944L55.041 27.6627ZM66.6174 33.7749L67.2402 34.7976C67.3802 34.7124 67.5013 34.5994 67.5959 34.4656C67.6905 34.3318 67.7566 34.18 67.7902 34.0195C67.8238 33.8591 67.824 33.6935 67.791 33.533C67.758 33.3725 67.6924 33.2204 67.5982 33.0863L66.6174 33.7749ZM62.7854 36.9495V38.147C62.9576 38.1471 63.1279 38.1101 63.2846 38.0384C63.4412 37.9666 63.5806 37.862 63.6931 37.7315L62.7854 36.9495ZM50.9514 14.3079H55.3835V11.9128H50.9514V14.3079ZM54.1859 13.1187V13.2026H56.581V13.102L54.1859 13.1187ZM54.1859 13.2026C54.1859 15.9485 53.1944 18.5447 51.1239 21.0092L52.9573 22.5493C55.3403 19.7147 56.581 16.5868 56.581 13.2026H54.1859ZM51.1298 21.0021C48.5911 23.9791 45.6847 25.5131 42.6777 25.2688L42.4825 27.6555C46.5242 27.9848 50.1167 25.8796 52.9513 22.5564L51.1298 21.0021ZM43.7687 26.3167C43.7273 25.9794 43.7065 25.6398 43.7064 25.3H41.3113C41.3113 25.7586 41.3413 26.1945 41.3916 26.6065L43.7687 26.3167ZM43.7064 25.3C43.7064 22.6918 44.8476 19.8153 46.9541 17.4239L45.1578 15.8407C42.7268 18.5998 41.3113 22.0212 41.3113 25.3H43.7064ZM46.9601 17.4179C47.9756 16.2479 49.2833 15.2563 50.9083 14.4528L49.8449 12.3056C47.9744 13.2313 46.4008 14.4085 45.1518 15.8467L46.9601 17.4179ZM50.9023 14.4552C51.0819 14.3666 51.2616 14.2827 51.4388 14.2037L50.464 12.017C50.2604 12.1068 50.0557 12.2026 49.8497 12.3032L50.9023 14.4552ZM19.7607 37.4668C19.9726 37.0238 20.2038 36.5938 20.4528 36.1759L18.3955 34.9484C18.1081 35.4298 17.8434 35.9244 17.6003 36.4334L19.7607 37.4668ZM20.4576 36.1663C21.751 33.9521 23.4634 32.2193 25.6046 30.9439L24.3795 28.8854C21.8803 30.3727 19.8828 32.4025 18.3907 34.958L20.4576 36.1663ZM25.6046 30.9439C27.7003 29.6853 30.0938 29.0082 32.5383 28.9824L32.4999 26.5873C29.5935 26.6352 26.8812 27.3956 24.3795 28.8854L25.6046 30.9439ZM32.5191 28.9824C33.7825 28.9824 35.5608 29.3823 37.9223 30.2649L38.7606 28.0231C36.3081 27.1058 34.21 26.5873 32.5191 26.5873V28.9824ZM37.9199 30.2637C38.9199 30.649 39.9332 30.9985 40.9581 31.3116C41.7269 31.5391 42.431 31.7031 42.9591 31.7031V29.3081C42.813 29.3081 42.4083 29.2422 41.6371 29.0147C40.6679 28.7176 39.7093 28.3868 38.763 28.0231L37.9199 30.2649V30.2637ZM42.9591 31.7031C43.2405 31.7031 43.5627 31.6373 43.8453 31.569C44.159 31.4936 44.5399 31.3846 44.9782 31.2469C46.1595 30.8672 47.3318 30.46 48.4941 30.0254L47.6666 27.7777C46.5411 28.1984 45.4071 28.5928 44.2632 28.9608C43.8489 29.0913 43.5244 29.1824 43.2837 29.241C43.013 29.3069 42.9304 29.3081 42.9591 29.3081V31.7031ZM48.4869 30.0278C51.1454 29.0686 53.2794 28.7141 54.9392 28.8554L55.1427 26.4688C53.0052 26.2867 50.5047 26.755 47.6738 27.7753L48.4869 30.0278ZM54.944 28.8554C59.7939 29.2482 63.3063 31.1391 65.6379 34.4622L67.5982 33.0863C64.79 29.0842 60.5723 26.9083 55.1368 26.4688L54.944 28.8554ZM65.9959 32.751C64.3673 33.7401 62.9901 34.8778 61.8776 36.1687L63.6931 37.7315C64.6188 36.6561 65.7947 35.6765 67.2402 34.7976L65.9959 32.751ZM62.7866 35.752H18.6793V38.147H62.7854L62.7842 35.752H62.7866Z" fill="#5C9E31"/>
<path fill-rule="evenodd" clip-rule="evenodd" d="M65.4577 34.728C62.3837 36.9219 60.5599 39.7181 59.9851 43.1107H16.9688C17.322 40.3588 18.1411 37.9039 19.4261 35.7519C19.632 35.3998 19.8476 35.0573 20.0727 34.728H65.459H65.4577Z" fill="#FCEA2B"/>
<path fill-rule="evenodd" clip-rule="evenodd" d="M60.1984 41.9133C59.9134 43.039 59.7769 44.2365 59.7889 45.5059C59.8129 47.7117 60.2727 49.708 61.1672 51.4935H17.23C16.9247 49.74 16.7697 47.9636 16.7666 46.1837C16.7666 44.6844 16.884 43.2617 17.1199 41.9133H60.1984Z" fill="#F4AA41"/>
<path fill-rule="evenodd" clip-rule="evenodd" d="M60.4467 50.2959C61.1221 52.3904 62.3149 54.2334 64.0273 55.8237C65.2561 57.0033 66.691 57.9475 68.2606 58.6091L68.2366 58.6786H19.0219C18.9237 58.4103 18.8279 58.1397 18.7333 57.8667C17.8508 55.2884 17.264 52.7652 16.9766 50.2959H60.4467Z" fill="#EA5A47"/>
<path fill-rule="evenodd" clip-rule="evenodd" d="M64.2402 67.0611C65.3848 65.3482 66.3693 63.5334 67.1813 61.6399C67.572 60.7048 67.9318 59.757 68.2603 58.7982C68.168 58.7593 68.0762 58.7194 67.9848 58.6785H18.9521C20.0898 61.8244 21.5029 64.6158 23.189 67.0611H64.2402Z" fill="#8967AA"/>
<path fill-rule="evenodd" clip-rule="evenodd" d="M31.7818 74.2462C30.4669 73.93 29.1544 73.1612 27.8431 71.9398C26.7318 70.9674 25.3571 69.3411 23.7236 67.061H63.7162C62.0684 69.3962 60.7128 71.0224 59.6602 71.9398C58.271 73.2211 56.8005 73.9875 55.2437 74.2462H52.9636C51.8499 74.0845 50.5925 73.7169 49.1914 73.1385C47.2311 72.3361 45.4288 71.9398 43.781 71.9398C42.053 71.9398 40.1992 72.3373 38.2161 73.1397C36.8749 73.6833 35.7109 74.051 34.7193 74.2462H31.7818Z" fill="#61B2E4"/>
<path d="M42.5805 26.4616C42.5334 26.0762 42.5098 25.6882 42.5098 25.3C42.5098 22.3576 43.7876 19.207 46.0569 16.6323C47.1897 15.327 48.6304 14.2444 50.3775 13.3786C52.1211 12.5272 53.7701 12.0553 55.3209 11.9751C55.3664 12.3847 55.3844 12.7942 55.3844 13.2014C55.3844 16.267 54.2683 19.1291 52.0421 21.7792C51.0482 22.9444 49.9764 23.9288 48.8423 24.6904M67.1812 60.8832C66.2895 62.9648 65.188 64.9502 63.894 66.8086C62.166 69.2791 60.7505 70.9903 59.6608 71.94C57.9699 73.4992 56.158 74.2967 54.2192 74.3422C52.8265 74.3422 51.1476 73.9458 49.1932 73.1387C47.2316 72.3364 45.4294 71.94 43.7804 71.94C42.0535 71.94 40.1998 72.3376 38.2167 73.1399C36.2312 73.9458 34.6313 74.365 33.4086 74.4069C31.5489 74.4859 29.6951 73.6644 27.8437 71.94C26.663 70.9065 25.1852 69.1354 23.4165 66.6278C21.5172 63.9477 19.9556 60.8413 18.7329 57.299C17.4228 53.4741 16.7666 49.769 16.7666 46.1836C16.7666 42.0761 17.6528 38.5314 19.4251 35.5616C20.819 33.1785 22.6728 31.296 24.9936 29.9152C27.2688 28.5496 29.8666 27.8143 32.52 27.7848C33.9978 27.7848 35.9354 28.2435 38.3424 29.144C40.7435 30.047 42.2847 30.5056 42.9601 30.5056C43.4654 30.5056 45.1779 29.9691 48.0807 28.9009C50.8266 27.9106 53.1438 27.4998 55.0419 27.6627C60.1853 28.0782 64.0485 30.1116 66.6184 33.7749C62.0199 36.5699 59.7434 40.4834 59.7889 45.5058C59.8296 49.4169 61.2451 52.6718 64.0257 55.2561C65.2549 56.4358 66.6902 57.3799 68.2602 58.0415C67.932 59.0004 67.5721 59.9481 67.1812 60.8832Z" stroke="black" stroke-width="1.07108" stroke-linecap="round" stroke-linejoin="round"/>
</svg>
