<svg width="84" height="84" viewBox="0 0 84 84" fill="none" xmlns="http://www.w3.org/2000/svg">
<path d="M35.0793 28.196L35.2534 32.1991L32.4686 37.4206L28.1173 45.9491L27.2471 53.0852L30.38 63.1801L37.516 67.1832H48.3072L58.4021 59.525L62.9274 47.5156L52.4844 34.8099L49.5255 27.6738L35.0793 28.196Z" fill="#ECEFF1"/>
<path d="M59.7944 38.1169C57.0096 34.1137 54.7469 31.677 53.5286 26.6296C52.3102 21.5821 53.8766 22.9745 52.8323 18.6232C52.3102 16.3606 51.4399 14.7941 50.5697 13.5758C49.5254 12.3574 48.307 11.6612 47.6108 11.4872C46.0444 10.6169 42.3893 9.22453 37.864 11.6612C33.1647 14.0979 33.6868 19.3195 34.5571 29.9365C34.5571 30.6327 34.383 31.503 34.0349 32.1992C33.3387 33.7656 32.1204 35.158 31.0761 36.3764C29.8577 38.1169 28.6394 39.8574 27.7691 41.7719C25.6805 45.7751 23.766 50.8226 24.2881 52.7371C25.1584 52.5631 36.1235 69.2719 36.1235 69.62C36.8197 69.4459 39.7786 69.4459 42.3893 69.4459C46.0444 69.2719 48.133 69.0978 51.0918 69.794C51.0918 69.2719 50.9178 68.7497 50.9178 68.2276C50.9178 67.1833 51.0918 66.313 51.2659 65.0947C51.4399 64.2244 51.614 63.3542 51.788 62.3099C50.0475 63.8763 46.9146 65.6168 43.9558 66.139C41.345 66.6611 36.9938 65.7909 34.9052 63.1801C35.0792 63.1801 35.4273 63.1801 35.6014 63.0061C36.1235 62.832 36.6457 62.658 36.8197 62.3099C37.3419 61.4396 36.9938 60.5694 36.6457 60.0472C36.2976 59.5251 33.6868 57.6105 32.4685 56.5662C31.2501 55.5219 30.5539 54.9998 29.8577 54.3036L28.4653 52.9112C28.1172 52.5631 27.9432 52.215 27.7691 52.0409C27.421 51.1707 27.247 50.1264 27.421 48.734C27.5951 46.8194 28.2913 45.2529 29.1615 43.5124C29.5096 42.8162 30.3799 41.4238 30.3799 41.4238C30.3799 41.4238 27.421 48.734 28.9875 50.9966C28.9875 50.9966 29.1615 48.734 29.8577 46.4713C30.3799 44.9048 31.2501 42.6422 32.2944 41.4238C33.3387 40.2055 35.9495 35.6802 36.1235 32.8954C36.1235 31.677 36.2976 30.4587 36.2976 29.5884C35.6014 28.8922 47.7849 27.1517 48.4811 29.0663C48.6551 29.7625 51.0918 36.0283 52.4842 39.3352C53.1804 40.9017 54.0507 42.2941 54.5728 44.0346C55.095 45.9491 55.4431 48.5599 55.4431 51.1707C55.4431 51.6928 55.4431 52.5631 55.2691 53.4333C55.6172 53.4333 62.4051 46.1232 54.3988 40.0314C54.3988 40.0314 59.2722 42.2941 59.4463 46.8194C59.6203 50.4745 58.0539 53.4333 57.7058 53.9555C57.8798 53.9555 61.3608 55.5219 61.5349 55.5219C62.2311 55.5219 63.6235 54.9998 63.6235 54.9998C63.7975 54.4776 64.3197 53.0852 64.3197 52.5631C65.538 48.5599 62.5792 42.12 59.7944 38.1169Z" fill="#263238"/>
<path d="M37.6894 26.6295C38.939 26.6295 39.9521 25.071 39.9521 23.1485C39.9521 21.226 38.939 19.6675 37.6894 19.6675C36.4398 19.6675 35.4268 21.226 35.4268 23.1485C35.4268 25.071 36.4398 26.6295 37.6894 26.6295Z" fill="#ECEFF1"/>
<path d="M45.5223 26.9775C47.1565 26.9775 48.4812 25.1852 48.4812 22.9743C48.4812 20.7635 47.1565 18.9712 45.5223 18.9712C43.8882 18.9712 42.5635 20.7635 42.5635 22.9743C42.5635 25.1852 43.8882 26.9775 45.5223 26.9775Z" fill="#ECEFF1"/>
<path d="M38.9544 23.3865C38.8097 22.2421 38.1513 21.3828 37.4837 21.4671C36.8162 21.5515 36.3923 22.5476 36.5369 23.692C36.6816 24.8364 37.34 25.6958 38.0076 25.6114C38.6751 25.527 39.099 24.5309 38.9544 23.3865Z" fill="#212121"/>
<path d="M45.3479 25.933C46.3092 25.933 47.0884 24.92 47.0884 23.6704C47.0884 22.4207 46.3092 21.4077 45.3479 21.4077C44.3867 21.4077 43.6074 22.4207 43.6074 23.6704C43.6074 24.92 44.3867 25.933 45.3479 25.933Z" fill="#212121"/>
<path d="M68.4968 61.9618C67.8006 61.6137 66.5822 61.0916 65.5379 59.5251C65.0158 58.6549 65.1898 56.2181 64.3196 55.1738C63.7974 54.4776 63.1012 54.8257 62.9272 54.8257C61.3607 55.1738 57.7057 57.6105 55.269 54.8257C54.9209 54.4776 54.3987 53.9555 53.5285 53.9555C52.6582 53.9555 52.3101 54.3036 51.962 54.9998C51.6139 55.696 51.6139 56.2181 51.6139 57.9586C51.6139 59.351 51.6139 60.9175 51.4399 62.1359C51.0918 65.0947 50.5696 66.8352 50.5696 68.5757C50.5696 70.4903 51.0918 71.7086 51.788 72.2308C52.3101 72.7529 53.1804 73.101 55.0949 73.101C57.0095 73.101 58.2278 72.4048 59.4462 71.1865C60.3164 70.3162 61.0126 69.9681 63.4493 68.2276C65.3639 67.0093 68.3227 65.4428 68.8449 64.9207C69.193 64.5726 69.7151 64.3985 69.7151 63.3542C69.7151 62.484 69.0189 62.1358 68.4968 61.9618ZM33.5127 62.484C31.7722 59.6992 31.5981 59.177 30.3798 57.4365C29.3355 55.696 27.0728 52.389 25.6804 52.389C24.6361 52.389 24.114 52.9112 23.4178 53.6074C22.7216 54.3036 22.0254 55.87 20.807 56.7403C19.7627 57.6105 16.8039 57.4365 16.1077 58.4808C15.4115 59.5251 16.8039 61.0915 16.8039 63.7023C16.8039 64.7466 15.9336 65.4428 15.7596 66.139C15.5855 67.0093 15.4115 67.5314 15.7596 68.2276C16.4558 69.2719 17.326 69.62 23.2437 70.8384C26.3766 71.5346 29.3355 73.2751 31.25 73.4491C33.1646 73.6232 36.4715 73.4491 36.4715 68.7498C36.6456 65.965 35.0791 65.2688 33.5127 62.484ZM36.8196 30.9809C35.7753 30.2847 34.9051 29.5885 34.9051 28.5441C34.9051 27.4998 35.6013 27.1517 36.6456 26.2815C36.8196 26.1074 38.7342 24.3669 40.6488 24.3669C42.5633 24.3669 44.826 25.5853 45.6962 25.9334C47.2627 26.2815 48.8291 26.6296 48.6551 27.8479C48.481 29.5885 48.307 29.9366 46.5665 30.8068C45.3481 31.1549 43.0855 33.0695 41.519 33.0695C40.8228 33.0695 39.7785 33.0695 39.0823 32.8954C38.5602 32.7214 37.6899 31.8511 36.8196 30.9809Z" fill="#FFC107"/>
<path d="M36.471 29.5884C36.8191 29.9365 37.3412 30.2846 37.8634 30.4586C38.2115 30.6327 38.7336 30.8067 38.7336 30.8067H40.3001C41.1703 30.8067 42.3887 30.4586 43.607 29.7624C44.8254 29.2403 44.9994 28.8922 45.8697 28.5441C46.7399 28.0219 47.6102 27.4998 47.2621 27.3257C46.914 27.1517 46.5659 27.3257 45.3475 28.0219C44.3032 28.7181 43.433 29.0662 42.3887 29.5884C41.8665 29.7624 41.1703 30.1105 40.6482 30.1105H39.0817C38.5596 30.1105 38.2115 29.9365 37.6893 29.7624C37.3412 29.5884 37.1672 29.4143 36.9931 29.4143C36.645 29.2403 35.9488 28.5441 35.6007 28.37C35.6007 28.37 35.2526 28.37 35.4267 28.5441L36.471 29.5884ZM41.6925 25.7593C41.8665 26.1074 42.2146 26.1074 42.3887 26.2814C42.5627 26.4555 42.7368 26.4555 42.7368 26.4555C42.9108 26.2814 42.7368 25.9333 42.5627 25.9333C42.5627 25.5852 41.6925 25.5852 41.6925 25.7593ZM38.9077 26.1074C38.9077 26.2814 39.2558 26.4555 39.2558 26.2814C39.4298 26.1074 39.6039 25.9333 39.7779 25.9333C40.126 25.7593 39.952 25.5852 39.4298 25.5852C39.0817 25.7593 39.0817 25.9333 38.9077 26.1074Z" fill="#634703"/>
<path d="M55.7909 56.9141V57.4363C56.139 58.1325 57.0093 58.3065 57.7055 58.3065C58.7498 58.3065 59.7941 57.6103 60.3162 56.9141C60.3162 56.7401 60.4903 56.566 60.6643 56.392C61.0124 55.8698 61.1865 55.5217 61.3605 55.3477C61.3605 55.3477 61.1865 55.1736 61.1865 54.9996C61.0124 54.6515 60.4903 54.3034 59.7941 54.1293C59.2719 53.9553 58.4017 53.7812 58.0536 53.7812C56.4871 53.6072 55.6169 54.1293 55.0947 54.6515C55.0947 54.6515 55.2688 54.6515 55.2688 54.8255C55.6169 55.1736 55.7909 55.5217 55.7909 56.0439C55.965 56.392 55.7909 56.566 55.7909 56.9141Z" fill="#455A64"/>
</svg>
