<svg width="78" height="78" viewBox="0 0 78 78" fill="none" xmlns="http://www.w3.org/2000/svg">
<path d="M67.6549 14.5095H43.9558L39.1192 24.1826H12.2764V65.2933H72.7333V14.5095H67.6549ZM67.8967 24.1826H49.0342L51.4525 19.3461H67.8967V24.1826Z" fill="#55A1BF"/>
<path fill-rule="evenodd" clip-rule="evenodd" d="M54.0107 61.7191C47.7554 62.0091 41.5253 60.7498 35.8736 58.053L37.0175 56.2393C42.3533 58.6171 48.1773 59.6946 54.0107 59.3831C54.0107 59.5814 54.2525 55.6759 54.6032 53.5478H46.3738C47.0314 45.4999 49.5417 37.7132 53.7084 30.7966H29.042V68.3428H54.9562C54.5048 66.1565 54.189 63.9444 54.0107 61.7191Z" fill="#C6E9FA"/>
<path fill-rule="evenodd" clip-rule="evenodd" d="M56.4945 59.2475C60.2964 59.0105 63.999 57.9371 67.3381 56.1037L68.7576 57.9175C64.9709 59.983 60.7935 61.2327 56.4945 61.586C56.6132 63.874 56.9706 66.1434 57.561 68.3572H75.3039V30.8062H56.4172C52.4829 36.9128 50.0255 43.8521 49.2397 51.0737H57.7182C57.0094 53.7406 56.599 56.4779 56.4945 59.2354V59.2475ZM40.251 36.4843H42.6572V42.0439H40.251V36.4843Z" fill="#00ADEE"/>
<path fill-rule="evenodd" clip-rule="evenodd" d="M60.2822 36.4844H62.686V42.044H60.2822V36.4844Z" fill="#231F20"/>
<path fill-rule="evenodd" clip-rule="evenodd" d="M56.4945 59.2476C60.2964 59.0106 63.999 57.9372 67.3381 56.1039L68.7576 57.9176C64.9708 59.9831 60.7935 61.2328 56.4945 61.5861C56.6831 65.8753 57.8003 70.0725 59.7689 73.8879L57.7182 74.9664C53.9722 69.0537 53.3024 61.0879 54.6034 53.5574H46.374C47.228 42.748 51.4424 32.4767 58.4267 24.1826L60.2017 25.7206C54.0472 32.8557 50.2221 41.7025 49.2397 51.0739H57.7182C57.0093 53.7407 56.5989 56.4781 56.4945 59.2355V59.2476Z" fill="#231F20"/>
<path fill-rule="evenodd" clip-rule="evenodd" d="M54.0111 59.3927V61.7191C47.7558 62.009 41.5256 60.7497 35.874 58.053L37.0179 56.2393C42.3537 58.6171 48.1777 59.6945 54.0111 59.383V59.3927Z" fill="#00ADEE"/>
</svg>
