<svg width="66" height="66" viewBox="0 0 66 66" fill="none" xmlns="http://www.w3.org/2000/svg">
<g clip-path="url(#clip0_267_172)">
<path d="M54.6922 1.94653H53.9853L21.4575 2.1314C14.7954 1.79876 8.17876 3.39394 2.40017 6.72581L2.40561 6.72852C1.76254 7.07804 1.25427 7.63189 0.961132 8.30254C0.667991 8.97319 0.606692 9.7224 0.786922 10.4318C0.967151 11.1412 1.37863 11.7703 1.95634 12.2197C2.53405 12.6691 3.24504 12.9131 3.97695 12.9133C4.92846 12.9133 5.77666 12.511 6.37746 11.8721C10.0316 9.90246 14.0772 8.76817 18.2226 8.55098C22.368 8.33378 26.51 9.03911 30.35 10.6161C44.6905 16.5018 51.5685 32.9629 45.6828 47.3034C44.1553 51.0276 41.8416 54.3781 38.8999 57.1257L38.9271 57.161C38.494 57.4105 38.1236 57.7554 37.8438 58.1696C37.5639 58.5837 37.3822 59.0561 37.3123 59.551C37.2423 60.0459 37.2861 60.5502 37.4402 61.0256C37.5943 61.501 37.8548 61.9351 38.2017 62.2948C38.5487 62.6545 38.9731 62.9305 39.4426 63.1017C39.9122 63.2729 40.4145 63.3348 40.9116 63.2828C41.4087 63.2308 41.8874 63.0663 42.3113 62.8016C42.7353 62.5369 43.0934 62.1792 43.3584 61.7554C46.941 58.3884 49.7593 54.2917 51.6229 49.742C51.7588 49.4212 65.0853 16.9558 65.1179 16.8661C66.21 14.2034 66.1998 11.2159 65.0894 8.56078C63.979 5.90563 61.8594 3.80026 59.1969 2.70774C57.7016 2.09334 56.3043 1.95197 54.6922 1.94653ZM17.1811 18.6251C10.0177 18.6251 2.65844 20.819 2.65844 29.339C2.65844 35.2111 7.94881 37.087 13.2419 38.2478C19.8263 39.6669 23.635 40.6347 23.635 43.4131C23.635 46.6401 20.2776 47.6731 17.6324 47.6731C14.0167 47.6731 10.662 46.0583 10.5967 42.0565H1.88364C2.2724 50.8974 9.82191 53.8008 17.5699 53.8008C25.1846 53.8008 32.8021 50.9626 32.8021 42.1843C32.8021 35.9859 27.5743 34.0503 22.2159 32.8242C16.9881 31.6009 11.8228 31.1469 11.8228 27.8547C11.8228 25.1442 14.8567 24.7555 16.9256 24.7555C20.2151 24.7555 22.9255 25.726 23.1838 29.2738H31.8968C31.19 21.0772 24.4751 18.6251 17.1811 18.6251Z" fill="#FDFDFD"/>
</g>
<defs>
<clipPath id="clip0_267_172">
<rect width="65.2461" height="65.2461" fill="white" transform="translate(0.688477)"/>
</clipPath>
</defs>
</svg>
