<svg width="79" height="79" viewBox="0 0 79 79" fill="none" xmlns="http://www.w3.org/2000/svg">
<path d="M39.7314 75.6057L69.0107 58.6984L57.7882 52.208L46.3141 58.8362C46.2165 58.8899 46.1067 58.9176 45.9952 58.9167C45.8838 58.9159 45.7744 58.8865 45.6776 58.8313C45.5808 58.7749 45.5003 58.6943 45.444 58.5975C45.3876 58.5007 45.3573 58.391 45.3559 58.279V42.5378C45.3559 42.0741 45.5958 41.654 45.9974 41.4234L59.6315 33.5497C59.7286 33.4943 59.8386 33.4656 59.9504 33.4664C60.0622 33.4673 60.1718 33.4977 60.268 33.5546C60.4673 33.6654 60.5921 33.8745 60.594 34.102V47.3517L71.8239 53.8385V20.0251L39.7314 38.55V75.6057Z" fill="black"/>
<path d="M33.1659 58.8437L21.6869 52.2075L10.4558 58.6973L39.732 75.6058V38.5501L7.64941 20.0247V53.8367L18.8762 47.3524V34.1034C18.8812 33.8758 19.0035 33.6667 19.2004 33.556C19.2972 33.4991 19.4072 33.4687 19.5195 33.4679C19.6318 33.467 19.7423 33.4957 19.84 33.5511L33.4808 41.4235C33.6761 41.5369 33.8381 41.6996 33.9507 41.8953C34.0632 42.091 34.1224 42.3128 34.1223 42.5386V58.2822C34.1198 58.5098 33.9993 58.7189 33.8025 58.837C33.6081 58.9526 33.3658 58.9538 33.1659 58.8437Z" fill="#4D4D4D"/>
<path d="M42.5452 3.11792V16.0865L54.0199 22.7104C54.2167 22.8254 54.3341 23.037 54.3341 23.2676C54.3341 23.4958 54.2142 23.7049 54.0199 23.8199L40.3809 31.6985C40.1849 31.8096 39.9634 31.8679 39.7382 31.8679C39.5129 31.8679 39.2915 31.8096 39.0955 31.6985L25.4608 23.8199C25.3639 23.764 25.2836 23.6834 25.2279 23.5864C25.1722 23.4895 25.143 23.3795 25.1434 23.2676C25.1425 23.155 25.1713 23.0442 25.2271 22.9463C25.2828 22.8484 25.3634 22.7671 25.4608 22.7104L36.9324 16.0865V3.11792L7.64941 20.0252L39.732 38.55L71.822 20.0252L42.5452 3.11792Z" fill="#808080"/>
</svg>
