<svg width="112" height="93" viewBox="0 0 112 93" fill="none" xmlns="http://www.w3.org/2000/svg">
<g clip-path="url(#clip0_487_8)">
<path d="M35.3847 91.7705H26.7107V83.7275H35.2481V85.5088H29.0312V86.8787H34.916V88.5588H29.0351V89.9441H35.3847V91.771V91.7705ZM85.2879 91.7705H76.7504V83.855H85.1548V85.5995H79.0385V86.9466H84.83V88.5987H79.0385V89.9634H85.2879V91.7705ZM47.1507 91.7705H43.6369L39.016 85.755H38.9709V91.7705H36.6746V83.7275H40.2401L44.8041 89.7505H44.8487V83.7275H47.1507V91.771V91.7705ZM74.9566 91.7705H71.448L66.8272 85.755H66.7821V91.7705H64.4754V83.7275H68.0408L72.6048 89.7505H72.6495V83.7275H74.9562V91.771L74.9566 91.7705ZM54.2837 91.8735L53.9265 91.877L53.6555 91.8761L53.394 91.8735L53.1425 91.8691L52.8997 91.863L52.6673 91.8551L52.4444 91.8459L52.2307 91.8345L52.0269 91.8213C51.5661 91.7976 51.1087 91.7287 50.6611 91.6154C50.3329 91.5327 50.0238 91.3863 49.751 91.1843C49.5123 90.9962 49.3246 90.7501 49.2055 90.4689C49.0621 90.1285 48.9707 89.7681 48.9345 89.4C48.892 88.9677 48.8695 88.5337 48.8669 88.0993V87.6778C48.8635 87.1779 48.8872 86.6782 48.938 86.1809C48.9719 85.8109 49.0615 85.4484 49.2038 85.1058C49.3249 84.8259 49.5129 84.5808 49.751 84.3926C50.0241 84.1919 50.3341 84.0483 50.6628 83.9702C51.0647 83.869 51.4745 83.8038 51.8877 83.7744L52.0252 83.7661C52.0924 83.7617 52.1609 83.7573 52.2307 83.7538L52.4453 83.7433L52.5559 83.7385L52.7839 83.7302L53.0216 83.7236L53.2683 83.7192L53.3949 83.717L53.655 83.7144L53.9247 83.7135H54.2699L54.5279 83.7144L54.7763 83.717L55.0157 83.7214L55.1319 83.7236L55.3573 83.7302L55.5728 83.7385L55.6773 83.7429L55.8794 83.7538C56.2778 83.774 56.6741 83.823 57.0657 83.9006C57.3519 83.9545 57.6285 84.0522 57.886 84.1897C58.0929 84.301 58.2706 84.4609 58.4038 84.6559C58.536 84.8618 58.6249 85.0926 58.6648 85.3349C58.7099 85.6014 58.7341 85.8711 58.7372 86.1414V86.5664H56.4925V86.4687C56.4968 86.311 56.4678 86.1537 56.4079 86.0078C56.3377 85.8713 56.2205 85.7653 56.0784 85.7099C55.8817 85.6329 55.6759 85.5824 55.4662 85.5596L55.3872 85.5526C55.2884 85.543 55.1791 85.5351 55.059 85.5281L54.9099 85.5211L54.7507 85.5154L54.5816 85.511L54.4026 85.5084L54.2131 85.5071H53.9156L53.7214 85.5084L53.4469 85.5119L53.2756 85.5158L53.113 85.5207L52.96 85.5268L52.8871 85.5299C52.6251 85.539 52.3645 85.5723 52.1084 85.6293C51.9306 85.6679 51.7628 85.7432 51.6163 85.851C51.4905 85.9517 51.3956 86.0867 51.3431 86.24C51.2863 86.4126 51.2499 86.5915 51.2347 86.7727L51.2291 86.8507C51.2256 86.8989 51.2226 86.9497 51.22 87.0019L51.2126 87.1648L51.2074 87.3396L51.2044 87.5254L51.2035 87.6231V87.9648L51.2057 88.1532L51.21 88.3293L51.2161 88.4944C51.2187 88.5479 51.2213 88.5991 51.2247 88.6482L51.2291 88.7209C51.2404 88.9247 51.2785 89.1262 51.3431 89.3194C51.396 89.4718 51.4905 89.6055 51.6163 89.7049C51.7628 89.8127 51.9306 89.888 52.1084 89.9266C52.3278 89.9752 52.5507 90.0067 52.7748 90.0203L52.96 90.0295L53.113 90.0357L53.2756 90.0409L53.4469 90.0449L53.6277 90.0471L53.8172 90.0484H54.4039L54.5851 90.0479L54.7559 90.0457C54.8669 90.0435 54.971 90.04 55.0681 90.0343L55.307 90.0168L55.4618 90.0046C55.5863 89.994 55.6977 89.9822 55.7966 89.9669C55.9427 89.9459 56.0858 89.9055 56.2215 89.8464C56.3182 89.8026 56.4031 89.7356 56.4686 89.651C56.528 89.5701 56.5676 89.4761 56.584 89.3768C56.603 89.2545 56.6121 89.131 56.6117 89.007V88.7836H53.557V87.231H58.8287V89.0175C58.8326 89.3579 58.8074 89.6983 58.7545 90.0348C58.7119 90.3012 58.6206 90.5574 58.4853 90.7901C58.3552 91.0025 58.1774 91.1817 57.9671 91.3136C57.7086 91.4693 57.4269 91.5817 57.1329 91.6465C56.7852 91.7263 56.4322 91.7806 56.0767 91.8104L55.9245 91.8213C55.8239 91.8288 55.7194 91.8354 55.6123 91.8415L55.392 91.852L55.2784 91.8564L55.0443 91.8638C54.9246 91.8673 54.8015 91.8695 54.6748 91.8713L54.4164 91.8735H54.2837ZM62.783 91.7902H60.4503V83.8064H62.783V91.7902ZM9.42024 79.5117L8.82535 79.5144L8.49148 79.5135L8.32672 79.5122L8.00542 79.5087C7.84673 79.506 7.69107 79.503 7.53844 79.4995L7.23753 79.4911L6.94529 79.4811L6.66085 79.4688L6.38508 79.4552C6.34027 79.4527 6.29547 79.4501 6.25067 79.4473L5.98748 79.4307C5.94455 79.4279 5.90162 79.4249 5.8587 79.4219C5.11833 79.3781 4.38271 79.2737 3.65908 79.1096C3.1204 78.9921 2.60341 78.7896 2.12719 78.5094C1.73683 78.2718 1.40549 77.947 1.15854 77.56C0.90375 77.145 0.730753 76.6842 0.649072 76.2028C0.542693 75.596 0.493045 74.9804 0.500783 74.3641V65.2912H4.59304V73.0235C4.59304 73.2443 4.59651 73.4507 4.60388 73.6426L4.61212 73.8296C4.61819 73.951 4.62643 74.0662 4.63597 74.1749L4.64334 74.2555C4.66653 74.5549 4.73466 74.849 4.84539 75.1277C4.93861 75.3586 5.09037 75.561 5.28549 75.7139C5.51399 75.8799 5.77285 75.9987 6.04688 76.0631C6.38611 76.1497 6.73235 76.2054 7.08143 76.2295L7.30647 76.2427L7.50072 76.2514L7.70451 76.2593L7.9174 76.2659L8.13984 76.2707L8.37181 76.2746L8.61375 76.2768L8.86524 76.2773H9.21038L9.46143 76.2768L9.70251 76.2742L9.81958 76.2725L10.0468 76.2676L10.1569 76.2646L10.3702 76.2571L10.473 76.2527L10.672 76.2435L10.7674 76.2378L10.8611 76.2322C11.2543 76.2122 11.6449 76.1568 12.0283 76.0666C12.3033 76.0043 12.5626 75.8855 12.7901 75.7174C12.9827 75.5624 13.1335 75.3607 13.2285 75.1312C13.3404 74.8528 13.4091 74.5586 13.4323 74.259C13.4644 73.9098 13.4808 73.5028 13.4808 73.0376V65.2894H17.5748V74.3619C17.5807 74.9759 17.5344 75.5893 17.4365 76.1954C17.3607 76.6778 17.1924 77.1406 16.9409 77.5578C16.6979 77.9444 16.37 78.2693 15.9827 78.5072C15.508 78.7877 14.9922 78.9902 14.4547 79.1074C13.7888 79.2582 13.1127 79.3585 12.432 79.4075L12.1163 79.4285L11.8505 79.4447L11.5765 79.4596L11.436 79.4662L11.1494 79.478L10.8537 79.4881L10.5502 79.4968L10.238 79.503L10.0784 79.5056L9.75324 79.51L9.42024 79.5117ZM38.6184 79.3418H32.4991L24.4421 68.8213H24.3627V79.3418H20.3498V65.2706H26.5658L34.5244 75.8015H34.6025V65.2706H38.6154V79.3347L38.6184 79.3418ZM45.5828 72.3752H50.6836L50.8913 72.3743L51.0899 72.3725L51.2802 72.3695L51.4619 72.3651L51.5491 72.362L51.7182 72.3559L51.8777 72.348L52.0295 72.3392L52.1019 72.334L52.2407 72.323L52.3707 72.3103C52.7044 72.2907 53.0298 72.1972 53.3238 72.0365C53.5341 71.9086 53.6863 71.7027 53.7487 71.4626C53.8228 71.1428 53.8567 70.8155 53.8484 70.4874V70.2447C53.8559 69.9207 53.8224 69.5971 53.7487 69.2818C53.7185 69.1631 53.6648 69.0518 53.5909 68.9547C53.517 68.8576 53.4243 68.7766 53.3186 68.7166C53.0209 68.562 52.6945 68.4722 52.3603 68.4529L52.2302 68.4406L52.0919 68.4297C52.0678 68.4278 52.0437 68.4261 52.0195 68.4244L51.8686 68.4157L51.7095 68.4078L51.5421 68.4012L51.3661 68.3964L51.1818 68.392L50.9889 68.3898L50.7872 68.3885H45.5828V72.3752ZM57.9706 79.3418H53.9265V78.2005C53.9295 77.8465 53.9135 77.4921 53.8779 77.1399C53.8543 76.8784 53.7836 76.6235 53.6693 76.3877C53.5669 76.1865 53.4138 76.0162 53.2253 75.8939C52.9927 75.7524 52.7364 75.6548 52.4692 75.6061C52.0877 75.53 51.7009 75.4846 51.3123 75.4703L51.2191 75.4655L51.0257 75.4567C50.9925 75.4555 50.9592 75.4543 50.926 75.4532L50.7187 75.4466L50.5028 75.4414L50.2773 75.4375C50.2388 75.437 50.2002 75.4365 50.1616 75.4361L49.9231 75.4339H49.8004L45.5828 75.4335V79.3413H41.5287V65.2706H52.3256C53.2 65.2561 54.074 65.3172 54.938 65.4533L55.1232 65.4839C55.7462 65.5801 56.3379 65.8239 56.8498 66.1954C57.2729 66.5314 57.5796 66.9946 57.7256 67.518C57.9008 68.1808 57.9819 68.866 57.9671 69.5521V70.0458C57.9728 70.5323 57.93 71.0181 57.8392 71.4959C57.7664 71.875 57.6253 72.2373 57.423 72.5649C57.2324 72.8636 56.9797 73.1167 56.6824 73.3066C56.3379 73.5184 55.9599 73.6689 55.565 73.7517V73.8318C55.9746 73.8926 56.3768 73.9961 56.7652 74.1407C57.059 74.2493 57.3151 74.4421 57.5023 74.6953C57.6973 74.9837 57.8228 75.3143 57.8687 75.6604C57.9415 76.1643 57.9745 76.6738 57.9671 77.1833V79.3343L57.9706 79.3418ZM75.7544 79.3418H60.6281V65.2706H75.516V68.3811H64.6805V70.773H74.9428V73.7114H64.6809V76.1349H75.7544V79.3418ZM89.43 73.891L86.5934 68.247H86.4933L83.6766 73.891H89.43ZM96.593 79.3518H92.179L90.9033 76.8275H82.2228L80.9675 79.3518H76.5865L84.0617 65.2899H89.0848L96.593 79.3518ZM111.5 79.3518H98.0932V65.2899H102.186V76.0876H111.5V79.3518ZM55.9999 0.277832C59.6978 0.277314 63.3595 1.01278 66.776 2.44222C70.1926 3.87166 73.297 5.96709 75.9119 8.60884C78.5269 11.2506 80.6012 14.3869 82.0164 17.8387C83.4317 21.2905 84.1601 24.9902 84.1601 28.7264C84.161 44.4396 71.5551 57.1781 56.0038 57.179C40.4525 57.1798 27.8449 44.4431 27.8436 28.7299C27.8428 13.1745 40.198 0.534118 55.5347 0.282213L56.0003 0.277832H55.9999ZM66.3429 3.49258C56.2414 -0.735044 44.6142 1.60219 36.8832 9.41387C29.1522 17.226 26.8399 28.9739 31.0245 39.1807C35.2091 49.3866 45.0664 56.0408 56.0003 56.0399C70.929 56.039 83.0306 43.8109 83.0306 28.7269C83.0306 17.6799 76.4443 7.72019 66.3429 3.49258ZM53.4465 11.5097C51.0895 12.8678 49.7631 15.0833 49.7631 16.943C49.7631 19.1904 50.776 19.5439 51.5009 19.3928L51.5881 19.3722C51.6023 19.3683 51.6165 19.3642 51.6306 19.3599L51.7125 19.3328C51.7256 19.3279 51.7386 19.3227 51.7516 19.3175L51.8274 19.285C51.8394 19.2794 51.8512 19.2735 51.863 19.2675L51.9306 19.2311L51.9926 19.1926L52.0486 19.1532C52.0572 19.1462 52.0659 19.1396 52.0737 19.1326V36.3909C52.163 36.6078 52.2788 36.8123 52.4189 36.9999C52.6549 37.3296 52.9658 37.5974 53.3254 37.7808C53.6851 37.9641 54.083 38.0576 54.4858 38.0535C55.2212 38.0535 56.0463 37.7047 56.7622 37.2938L56.9638 37.1755L57.1589 37.0546L57.3454 36.9337L57.5231 36.8137L57.6905 36.6963L57.8466 36.5832L58.1224 36.3751L58.3413 36.2012L58.4957 36.0737L58.5867 35.9949V22.0205C58.5867 20.5984 57.5266 18.8802 56.4647 18.2941L56.6113 18.2739L56.783 18.2586L56.9477 18.2494L57.1407 18.245H57.2105L57.3579 18.2485L57.4351 18.252L57.5955 18.2621C57.6779 18.2687 57.7638 18.2774 57.8514 18.2884L58.03 18.3147C58.6045 18.408 59.2601 18.6156 59.8554 19.0458L59.9495 19.1159C60.2344 18.7631 60.5374 18.4258 60.8575 18.1052C63.3368 15.6445 65.718 14.4209 67.8778 13.7374L68.2004 13.6389C68.2535 13.6231 68.3067 13.6077 68.3599 13.5924L68.6773 13.5048C68.7823 13.4772 68.8867 13.45 68.9908 13.4246L69.3004 13.3502L69.6065 13.2814L69.9087 13.2183L70.3553 13.132L70.5015 13.1053L70.3206 13.2568L70.0609 13.4873L69.8962 13.6397L69.7119 13.8163L69.5098 14.0161L69.2922 14.2386L69.14 14.3994L68.9826 14.5694L68.8213 14.749L68.6561 14.9383L68.4883 15.1363L68.3183 15.3435L68.1466 15.559L68.0608 15.6703L67.8882 15.8981C67.7737 16.0536 67.6588 16.214 67.5456 16.38L67.3765 16.6324C67.3202 16.7178 67.2651 16.8045 67.21 16.8926L67.0466 17.1598C66.1577 18.6529 65.4475 20.4762 65.4475 22.4915L65.457 25.2532L65.5494 36.2468C66.6654 37.3297 68.1002 36.8421 69.6087 35.7193L69.8103 35.566L69.9113 35.4867L70.1138 35.3228L70.2157 35.2383L70.4191 35.0657L70.5205 34.9767L70.7243 34.7958L70.9285 34.6096L71.2347 34.3227L71.5403 34.0278L71.8408 33.7312L72.14 33.4303L72.3382 33.2274L72.7327 32.82L72.6998 32.9742L72.662 33.138L72.597 33.4009L72.5471 33.5867L72.4921 33.7807L72.4314 33.9823L72.3655 34.1921L72.2935 34.4085L72.2159 34.6319L72.1322 34.8615L72.0424 35.0972L71.9458 35.3386L71.843 35.5857L71.7888 35.711L71.6761 35.9651L71.5555 36.2235L71.428 36.4855L71.3617 36.6183L71.2229 36.8859C71.1995 36.9311 71.1753 36.9762 71.151 37.0213L71.0014 37.2934C69.5905 39.8028 67.1884 42.6381 63.2028 44.5408L60.4399 41.4005L55.7775 46.139C53.1229 46.1028 50.5125 45.447 48.1504 44.2228C45.7882 42.9985 43.7382 41.239 42.1605 39.0817C42.6565 39.2376 43.1686 39.3349 43.6867 39.3713C44.4498 39.3853 45.2771 39.1027 45.2771 37.8011V25.021C45.2885 24.6922 45.2235 24.3652 45.0871 24.0664C44.9508 23.7676 44.7469 23.5052 44.492 23.3004C44.2371 23.0956 43.9383 22.9541 43.6194 22.8872C43.3005 22.8202 42.9706 22.8298 42.6561 22.9151C41.5933 23.1604 40.6355 24.6053 39.9366 26.0085L39.8087 26.2709L39.6872 26.5303L39.5719 26.7852L39.4635 27.0341L39.3621 27.2741L39.268 27.5046L39.1812 27.7232L39.0308 28.117L38.9129 28.4417L38.7706 28.8592C38.7467 26.3447 39.265 23.8551 40.2897 21.5635C41.3143 19.2718 42.8206 17.2332 44.7039 15.5893C47.5253 13.1732 50.2899 12.1436 52.5372 11.6758L52.8472 11.614C52.8984 11.6039 52.9491 11.5947 52.9999 11.5855L53.2991 11.5338L53.4465 11.5097Z" fill="white"/>
</g>
<defs>
<clipPath id="clip0_487_8">
<rect width="111" height="92" fill="white" transform="translate(0.5 0.277832)"/>
</clipPath>
</defs>
</svg>
