<svg width="62" height="61" viewBox="0 0 62 61" fill="none" xmlns="http://www.w3.org/2000/svg">
<g clip-path="url(#clip0_267_174)">
<path d="M31.0052 60.904C47.7654 60.904 61.3522 47.3172 61.3522 30.557C61.3522 13.7968 47.7654 0.209961 31.0052 0.209961C14.245 0.209961 0.658203 13.7968 0.658203 30.557C0.658203 47.3172 14.245 60.904 31.0052 60.904Z" fill="#3165D4"/>
<path fill-rule="evenodd" clip-rule="evenodd" d="M17.4357 14.2984C18.4808 13.4013 19.947 12.6673 21.2215 13.185C23.5165 14.1144 29.6732 26.5453 29.6732 26.5453C29.6732 26.5453 38.2898 14.2927 41.3833 13.1775C42.4398 12.7962 43.8869 13.4658 44.9908 14.2927C48.8639 17.1909 49.2641 21.2346 48.9302 22.3574C48.5092 23.7686 27.1088 50.9462 27.1088 50.9462C26.4678 50.6845 13.7884 27.1295 13.1018 23.099C12.4456 19.2469 14.6798 16.6294 17.4357 14.2984Z" fill="white"/>
</g>
<defs>
<clipPath id="clip0_267_174">
<rect width="60.694" height="60.694" fill="white" transform="translate(0.658203 0.209961)"/>
</clipPath>
</defs>
</svg>
